<svg xmlns="http://www.w3.org/2000/svg" xmlns:xlink="http://www.w3.org/1999/xlink" width="1000" zoomAndPan="magnify" viewBox="0 0 750 225" height="300" preserveAspectRatio="xMidYMid meet" version="1.0"><defs><g/></defs><g fill="#000000" fill-opacity="1"><g transform="translate(0, 186.125667)"><g><path d="M 54.015625 -129.484375 C 65.765625 -129.484375 75.460938 -128.0625 83.109375 -125.21875 C 90.753906 -122.382812 96.4375 -118.101562 100.15625 -112.375 C 103.882812 -106.65625 105.75 -99.425781 105.75 -90.6875 C 105.75 -84.78125 104.625 -79.613281 102.375 -75.1875 C 100.132812 -70.757812 97.179688 -67.007812 93.515625 -63.9375 C 89.859375 -60.875 85.90625 -58.363281 81.65625 -56.40625 L 119.734375 0 L 89.265625 0 L 58.359375 -49.6875 L 43.75 -49.6875 L 43.75 0 L 16.296875 0 L 16.296875 -129.484375 Z M 52.078125 -106.984375 L 43.75 -106.984375 L 43.75 -72 L 52.609375 -72 C 61.703125 -72 68.207031 -73.519531 72.125 -76.5625 C 76.050781 -79.601562 78.015625 -84.078125 78.015625 -89.984375 C 78.015625 -96.117188 75.90625 -100.484375 71.6875 -103.078125 C 67.46875 -105.679688 60.929688 -106.984375 52.078125 -106.984375 Z M 52.078125 -106.984375 "/></g></g></g><g fill="#000000" fill-opacity="1"><g transform="translate(101.41964, 186.125667)"><g><path d="M 55 -100.875 C 64.144531 -100.875 72.023438 -99.113281 78.640625 -95.59375 C 85.253906 -92.082031 90.359375 -86.988281 93.953125 -80.3125 C 97.554688 -73.644531 99.359375 -65.5 99.359375 -55.875 L 99.359375 -42.78125 L 35.515625 -42.78125 C 35.804688 -35.15625 38.09375 -29.171875 42.375 -24.828125 C 46.65625 -20.492188 52.601562 -18.328125 60.21875 -18.328125 C 66.539062 -18.328125 72.328125 -18.976562 77.578125 -20.28125 C 82.835938 -21.582031 88.238281 -23.53125 93.78125 -26.125 L 93.78125 -5.21875 C 88.882812 -2.800781 83.765625 -1.035156 78.421875 0.078125 C 73.078125 1.203125 66.597656 1.765625 58.984375 1.765625 C 49.066406 1.765625 40.285156 -0.0625 32.640625 -3.71875 C 24.992188 -7.375 19 -12.953125 14.65625 -20.453125 C 10.3125 -27.953125 8.140625 -37.398438 8.140625 -48.796875 C 8.140625 -60.367188 10.101562 -70.003906 14.03125 -77.703125 C 17.957031 -85.410156 23.429688 -91.195312 30.453125 -95.0625 C 37.484375 -98.9375 45.664062 -100.875 55 -100.875 Z M 55.171875 -81.65625 C 49.921875 -81.65625 45.566406 -79.972656 42.109375 -76.609375 C 38.660156 -73.242188 36.671875 -67.957031 36.140625 -60.75 L 74.03125 -60.75 C 73.976562 -64.769531 73.253906 -68.34375 71.859375 -71.46875 C 70.472656 -74.59375 68.40625 -77.070312 65.65625 -78.90625 C 62.914062 -80.738281 59.421875 -81.65625 55.171875 -81.65625 Z M 55.171875 -81.65625 "/></g></g></g><g fill="#000000" fill-opacity="1"><g transform="translate(196.500167, 186.125667)"><g><path d="M 83.25 -29.40625 C 83.25 -22.675781 81.664062 -16.992188 78.5 -12.359375 C 75.34375 -7.722656 70.632812 -4.207031 64.375 -1.8125 C 58.125 0.570312 50.332031 1.765625 41 1.765625 C 34.09375 1.765625 28.175781 1.320312 23.25 0.4375 C 18.320312 -0.445312 13.347656 -1.921875 8.328125 -3.984375 L 8.328125 -26.296875 C 13.703125 -23.878906 19.472656 -21.890625 25.640625 -20.328125 C 31.804688 -18.765625 37.222656 -17.984375 41.890625 -17.984375 C 47.140625 -17.984375 50.898438 -18.765625 53.171875 -20.328125 C 55.453125 -21.890625 56.59375 -23.941406 56.59375 -26.484375 C 56.59375 -28.128906 56.132812 -29.613281 55.21875 -30.9375 C 54.300781 -32.269531 52.335938 -33.78125 49.328125 -35.46875 C 46.316406 -37.15625 41.59375 -39.351562 35.15625 -42.0625 C 28.957031 -44.664062 23.863281 -47.296875 19.875 -49.953125 C 15.894531 -52.609375 12.941406 -55.75 11.015625 -59.375 C 9.097656 -63.007812 8.140625 -67.628906 8.140625 -73.234375 C 8.140625 -82.390625 11.695312 -89.285156 18.8125 -93.921875 C 25.925781 -98.554688 35.445312 -100.875 47.375 -100.875 C 53.519531 -100.875 59.378906 -100.253906 64.953125 -99.015625 C 70.535156 -97.773438 76.28125 -95.796875 82.1875 -93.078125 L 74.03125 -73.59375 C 69.132812 -75.71875 64.515625 -77.457031 60.171875 -78.8125 C 55.835938 -80.175781 51.425781 -80.859375 46.9375 -80.859375 C 42.976562 -80.859375 39.992188 -80.328125 37.984375 -79.265625 C 35.984375 -78.203125 34.984375 -76.578125 34.984375 -74.390625 C 34.984375 -72.796875 35.5 -71.378906 36.53125 -70.140625 C 37.5625 -68.898438 39.566406 -67.523438 42.546875 -66.015625 C 45.535156 -64.515625 49.921875 -62.582031 55.703125 -60.21875 C 61.316406 -57.914062 66.1875 -55.507812 70.3125 -53 C 74.445312 -50.488281 77.632812 -47.390625 79.875 -43.703125 C 82.125 -40.015625 83.25 -35.25 83.25 -29.40625 Z M 83.25 -29.40625 "/></g></g></g><g fill="#000000" fill-opacity="1"><g transform="translate(272.634833, 186.125667)"><g><path d="M 105.03125 -99.015625 L 105.03125 0 L 84.3125 0 L 80.6875 -12.671875 L 79.265625 -12.671875 C 77.140625 -9.296875 74.484375 -6.546875 71.296875 -4.421875 C 68.109375 -2.296875 64.59375 -0.734375 60.75 0.265625 C 56.914062 1.265625 52.929688 1.765625 48.796875 1.765625 C 41.710938 1.765625 35.539062 0.515625 30.28125 -1.984375 C 25.03125 -4.492188 20.941406 -8.40625 18.015625 -13.71875 C 15.097656 -19.039062 13.640625 -25.953125 13.640625 -34.453125 L 13.640625 -99.015625 L 40.65625 -99.015625 L 40.65625 -41.1875 C 40.65625 -34.09375 41.921875 -28.742188 44.453125 -25.140625 C 46.992188 -21.546875 51.039062 -19.75 56.59375 -19.75 C 62.082031 -19.75 66.390625 -21.003906 69.515625 -23.515625 C 72.648438 -26.023438 74.847656 -29.710938 76.109375 -34.578125 C 77.378906 -39.453125 78.015625 -45.398438 78.015625 -52.421875 L 78.015625 -99.015625 Z M 105.03125 -99.015625 "/></g></g></g><g fill="#000000" fill-opacity="1"><g transform="translate(375.351899, 186.125667)"><g><path d="M 55 -100.875 C 64.144531 -100.875 72.023438 -99.113281 78.640625 -95.59375 C 85.253906 -92.082031 90.359375 -86.988281 93.953125 -80.3125 C 97.554688 -73.644531 99.359375 -65.5 99.359375 -55.875 L 99.359375 -42.78125 L 35.515625 -42.78125 C 35.804688 -35.15625 38.09375 -29.171875 42.375 -24.828125 C 46.65625 -20.492188 52.601562 -18.328125 60.21875 -18.328125 C 66.539062 -18.328125 72.328125 -18.976562 77.578125 -20.28125 C 82.835938 -21.582031 88.238281 -23.53125 93.78125 -26.125 L 93.78125 -5.21875 C 88.882812 -2.800781 83.765625 -1.035156 78.421875 0.078125 C 73.078125 1.203125 66.597656 1.765625 58.984375 1.765625 C 49.066406 1.765625 40.285156 -0.0625 32.640625 -3.71875 C 24.992188 -7.375 19 -12.953125 14.65625 -20.453125 C 10.3125 -27.953125 8.140625 -37.398438 8.140625 -48.796875 C 8.140625 -60.367188 10.101562 -70.003906 14.03125 -77.703125 C 17.957031 -85.410156 23.429688 -91.195312 30.453125 -95.0625 C 37.484375 -98.9375 45.664062 -100.875 55 -100.875 Z M 55.171875 -81.65625 C 49.921875 -81.65625 45.566406 -79.972656 42.109375 -76.609375 C 38.660156 -73.242188 36.671875 -67.957031 36.140625 -60.75 L 74.03125 -60.75 C 73.976562 -64.769531 73.253906 -68.34375 71.859375 -71.46875 C 70.472656 -74.59375 68.40625 -77.070312 65.65625 -78.90625 C 62.914062 -80.738281 59.421875 -81.65625 55.171875 -81.65625 Z M 55.171875 -81.65625 "/></g></g></g><g fill="#000000" fill-opacity="1"><g transform="translate(466.650029, 186.125667)"><g><path d="M 41.1875 0 L 14.171875 0 L 14.171875 -137.796875 L 41.1875 -137.796875 Z M 41.1875 0 "/></g></g></g><path fill="#2196f2" d="M 545.796875 109.847656 L 549.746094 115.101562 L 549.714844 115.058594 L 553.683594 120.300781 L 553.648438 120.257812 L 557.632812 125.484375 L 557.601562 125.441406 L 561.601562 130.65625 L 561.570312 130.617188 L 565.585938 135.820312 L 565.554688 135.777344 L 569.410156 140.738281 L 569.378906 140.699219 L 573.253906 145.648438 L 573.21875 145.605469 L 577.109375 150.546875 L 577.074219 150.503906 L 580.976562 155.429688 L 580.945312 155.390625 L 584.863281 160.304688 C 590.644531 167.558594 589.433594 178.109375 582.15625 183.875 C 574.878906 189.636719 564.292969 188.429688 558.507812 181.175781 L 554.59375 176.261719 L 554.558594 176.21875 L 550.65625 171.292969 L 550.625 171.253906 L 546.738281 166.316406 L 546.707031 166.273438 L 542.835938 161.324219 L 542.804688 161.285156 L 538.945312 156.320312 L 538.914062 156.28125 L 534.894531 151.078125 L 534.863281 151.035156 L 530.863281 145.820312 L 530.828125 145.777344 L 526.84375 140.546875 L 526.8125 140.503906 L 522.84375 135.261719 L 522.8125 135.21875 L 518.863281 129.964844 C 513.289062 122.550781 514.796875 112.039062 522.238281 106.484375 C 529.675781 100.925781 540.222656 102.433594 545.796875 109.847656 Z M 545.796875 109.847656 " fill-opacity="1" fill-rule="nonzero"/><path fill="#2196f2" d="M 561.878906 160.246094 L 571.078125 149.652344 L 571.042969 149.691406 L 580.210938 139.066406 L 580.179688 139.109375 L 589.3125 128.457031 L 589.277344 128.496094 L 598.382812 117.816406 L 598.347656 117.855469 L 607.417969 107.148438 L 607.382812 107.191406 L 616.785156 96.019531 L 616.75 96.058594 L 626.113281 84.855469 L 626.078125 84.898438 L 635.410156 73.667969 L 635.375 73.707031 L 644.667969 62.445312 L 644.632812 62.488281 L 653.890625 51.195312 C 659.769531 44.023438 670.371094 42.957031 677.570312 48.820312 C 684.769531 54.679688 685.835938 65.25 679.953125 72.421875 L 670.699219 83.714844 L 670.664062 83.757812 L 661.371094 95.019531 L 661.335938 95.058594 L 652.007812 106.292969 L 651.972656 106.332031 L 642.605469 117.535156 L 642.570312 117.578125 L 633.171875 128.75 L 633.136719 128.789062 L 624.066406 139.496094 L 624.035156 139.535156 L 614.933594 150.214844 L 614.898438 150.253906 L 605.765625 160.90625 L 605.730469 160.945312 L 596.5625 171.570312 L 596.527344 171.609375 L 587.328125 182.203125 C 581.242188 189.207031 570.617188 189.96875 563.585938 183.90625 C 556.558594 177.84375 555.792969 167.25 561.878906 160.246094 Z M 561.878906 160.246094 " fill-opacity="1" fill-rule="nonzero"/><g fill="#000000" fill-opacity="1"><g transform="translate(642.820173, 186.125667)"><g><path d="M 55 -100.875 C 64.144531 -100.875 72.023438 -99.113281 78.640625 -95.59375 C 85.253906 -92.082031 90.359375 -86.988281 93.953125 -80.3125 C 97.554688 -73.644531 99.359375 -65.5 99.359375 -55.875 L 99.359375 -42.78125 L 35.515625 -42.78125 C 35.804688 -35.15625 38.09375 -29.171875 42.375 -24.828125 C 46.65625 -20.492188 52.601562 -18.328125 60.21875 -18.328125 C 66.539062 -18.328125 72.328125 -18.976562 77.578125 -20.28125 C 82.835938 -21.582031 88.238281 -23.53125 93.78125 -26.125 L 93.78125 -5.21875 C 88.882812 -2.800781 83.765625 -1.035156 78.421875 0.078125 C 73.078125 1.203125 66.597656 1.765625 58.984375 1.765625 C 49.066406 1.765625 40.285156 -0.0625 32.640625 -3.71875 C 24.992188 -7.375 19 -12.953125 14.65625 -20.453125 C 10.3125 -27.953125 8.140625 -37.398438 8.140625 -48.796875 C 8.140625 -60.367188 10.101562 -70.003906 14.03125 -77.703125 C 17.957031 -85.410156 23.429688 -91.195312 30.453125 -95.0625 C 37.484375 -98.9375 45.664062 -100.875 55 -100.875 Z M 55.171875 -81.65625 C 49.921875 -81.65625 45.566406 -79.972656 42.109375 -76.609375 C 38.660156 -73.242188 36.671875 -67.957031 36.140625 -60.75 L 74.03125 -60.75 C 73.976562 -64.769531 73.253906 -68.34375 71.859375 -71.46875 C 70.472656 -74.59375 68.40625 -77.070312 65.65625 -78.90625 C 62.914062 -80.738281 59.421875 -81.65625 55.171875 -81.65625 Z M 55.171875 -81.65625 "/></g></g></g></svg>